<svg height="38" viewBox="0 0 139 38" width="139" xmlns="http://www.w3.org/2000/svg"><g fill="none"><g fill="#c04348" transform="translate(43 8)"><path d="m17.0465322 22.1081306h-3.8107435l-10.50136203-16.78472548h-.11635858c.0387862.77572388.08242066 1.66295807.13090341 2.66170256.04848274.9987445.08242066 2.02173032.10181376 3.06895762v11.0540653h-2.85078526v-20.77000691h3.78165391l10.47227239 16.69745651h.0872689c-.0193931-.407255-.0436344-.9211721-.0727241-1.5417512-.0290896-.6205791-.053331-1.2847927-.0727241-1.9926407-.0193931-.7078481-.0387862-1.3720616-.0581793-1.9926407v-11.17042391h2.9089645z"/><path d="m28.304225 6.13791519c1.9587028 0 3.4277299.43149641 4.4070813 1.29448923.9793514.86299281 1.4690271 2.21566133 1.4690271 4.05800558v10.6177206h-2.1817234l-.6108825-2.1817235h-.1163586c-.6787584.8532963-1.3914547 1.4787237-2.138089 1.8762822-.7466342.3975585-1.7793166.5963377-3.0980472.5963377-1.4156961 0-2.5889784-.3830137-3.5198471-1.149041s-1.396303-1.9635511-1.396303-3.5925712c0-1.609627.6060343-2.8265439 1.8181029-3.6507505 1.2120685-.8242066 3.059261-1.2750961 5.5415774-1.3526685l2.6762474-.087269v-.8726893c0-1.1441927-.2618068-1.95385454-.7854204-2.42898542-.5236136-.47513087-1.2605513-.71269631-2.2108131-.71269631-.795117 0-1.5611443.11635858-2.298082.34907574-.7369377.23271717-1.4447857.51391707-2.1235441.84359972l-.9890479-2.2399027c.7369376-.38786194 1.5853856-.71269631 2.5453439-.97450312s1.9635511-.39271022 3.0107783-.39271022zm2.8216957 8.43599721-2.0944545.0581793c-1.7841649.0775724-3.0204749.3781654-3.7089298.901779-.688455.5236136-1.0326824 1.2411582-1.0326824 2.1526337 0 .8145101.2424137 1.4059996.7272411 1.7744684.4848274.3684689 1.1151031.5527033 1.890827.5527033 1.202372 0 2.2059647-.3393792 3.0107783-1.0181376.8048135-.6787584 1.2072203-1.696896 1.2072203-3.0544128z"/><path d="m42.0054481 22.1081306h-3.0835025v-22.1081306h3.0835025z"/><path d="m60.3319247 6.42881165v15.67931895h-2.4726199l-.4363446-2.0653649h-.1454483c-.5042205.8145101-1.202372 1.4108478-2.0944544 1.7890132-.8920825.3781654-1.8326477.5672481-2.8216956.5672481-1.8423443 0-3.2483438-.4508895-4.2179986-1.3526685-.9696549-.901779-1.4544823-2.351413-1.4544823-4.348902v-10.26864485h3.1125921v9.80321055c0 1.2217651.2569585 2.1332406.7708756 2.7344266.513917.6011861 1.3138823.9017791 2.3998957.9017791 1.6096271 0 2.7247301-.4702826 3.3453092-1.4108478.6205791-.9405653.9308687-2.3029303.9308687-4.0870952v-7.94147325z"/><path d="m68.6224737 22.1081306h-3.1125921v-20.77000691h11.6940375v2.67624739h-8.5814454v6.77788742h8.0287421v2.6762474h-8.0287421z"/><path d="m95.7631129 22.1081306h-3.5780264l-5.2943155-8.6687144-5.3524947 8.6687144h-3.3453093l6.894246-10.7922585-6.4579013-9.97774841h3.4907575l4.8870604 7.94147322 4.9161501-7.94147322h3.3453092l-6.4579013 10.00683801z"/></g><g fill="#27384d"><path d="m.95430084 14.5367432c.13497431-.6916888.29692165-1.3524187.51019417-1.9994436 1.65436356-5.01987598 4.83679797-8.69426774 9.65273829-10.91249851 2.1274835-.9798742 4.3791302-1.47559904 6.7140439-1.60516783.0693982-.00387669.1666976-.0390945.1914866.04854052.0214037.07562275-.0652485.12045038-.1259105.15921728-.3692683.23571364-.7688404.40028183-1.1833731.54235431-4.9140042 1.68373904-8.23457978 4.97264591-9.68626347 9.96849743-1.38119346 4.7533126-.1821498 8.9489279 3.15256747 12.5633129.2321646.2516572.2374609.2440677-.0156159.4707721-.64347585.5763163-1.28591427 1.1537792-1.92802508 1.7315698-.2554247.2298166-.29850509.2353859-.53673038-.0037675-2.50827267-2.5178825-4.50995484-5.3816094-5.90015751-8.6609611-.28676582-.6764549-.55791567-1.3593529-.77801335-2.0611975-.02680921-.0856147-.04810371-.1729768-.06694114-.2412283"/><path d="m31.3713084 14.2142189c-.100084-3.4249731-1.3478321-6.56722102-3.7304672-9.25174656-1.82259-2.05355337-4.0705785-3.4551677-6.6906746-4.26572339-.3401112-.10521663-.6582182-.25875537-.9571055-.45084261-.0707086-.04542824-.1931246-.08386753-.1529381-.19115901.0333068-.08889085.1462768-.04384481.2229916-.03953131 2.6167108.14682279 5.1151005.75928512 7.4452093 1.97159688 4.7260666 2.45880393 7.698177 6.32249825 9.126273 11.4274431.2144737.7667654.1924148 1.4489536-.0978455 2.2011405-1.4373782 3.7257169-3.5585279 6.997752-6.3647051 9.8316666-.2910247.2939732-.3032553.2888406-.6144279.0117393-.6247477-.5564415-1.2451817-1.1180154-1.8824331-1.6598783-.2016424-.171448-.2289976-.2666726-.031614-.4753586 1.6557286-1.750571 2.8064501-3.7839219 3.3783983-6.1338509.2245204-.9224336.3379272-1.8582993.3493388-2.9754957"/><path d="m.00209309 18.317116c0-.4455463-.00245705-.8910926.00196565-1.3366389.00098282-.0942418-.01982026-.2307449.11007614-.2454326.10494362-.0117939.12394486.1153178.15681482.1961823.64424026 1.5858935 1.43022539 3.0987306 2.35620815 4.5376923 1.98448278 3.0838791 4.48980697 5.6863389 7.3604682 7.9511992 2.27408785 1.7940881 4.69379725 3.3661677 7.22827855 4.7647243.0636104.0351086.1230166.0780798.1878283.1105129.2186234.1094755.216767.2600112.0965896.4456555-.1701921.2627413-.3863039.484204-.6249114.6805502-1.0279779.845555-2.2225443 1.3203676-3.5189966 1.5668377-.1177202.0223319-.2160572-.0138142-.3169056-.0494142-5.63091875-1.9865576-9.46185233-5.8418433-11.67631561-11.3345117-.99423433-2.4661204-1.3960996-4.8056752-1.3611002-7.287357"/><path d="m37.8772232 18.3833909c-.1228528 5.5889304-2.1156896 10.390183-6.1108637 14.3198902-1.9632975 1.9311373-4.2695455 3.3369014-6.8876213 4.2176743-.1692093.0568945-.3266794.0790626-.5026046.0405687-1.3403518-.2931542-2.5872261-.7807434-3.623831-1.7148071-.1564326-.141035-.2923898-.2995425-.4066156-.4754132-.1609645-.2478351-.1460038-.3274437.1166283-.4733383.8654299-.4808187 1.7215232-.9775264 2.5615635-1.5013162 3.1427939-1.9594209 6.1082975-4.1440719 8.6722088-6.8377157 2.5022119-2.628887 4.4481463-5.62049 5.8454471-8.9695674.0174178-.0418245.0359276-.0832669.051489-.1257467.0271914-.0740393.0667774-.1357387.1573062-.1124786.0799909.0205301.072838.0947878.0755135.1571971.0207485.4906468.06574.9805839.0513798 1.4750529"/><path d="m18.9663227 20.3492875c.6373605.0807006 1.2484578.3111179 1.8450311.5776813 1.7194484.7682397 3.2674487 1.8139631 4.7459961 2.9681791.9893202.7723348 1.9353963 1.5961586 2.8649827 2.4390928.0672142.0609896.1333363.1237265.1953633.1899578.137213.1464952.1346467.2686382-.0305221.4106561-.696166.5987574-1.4062008 1.1801516-2.1235522 1.7532465-.1876645.1498804-.3290818.159654-.5262469.0179637-1.3062805-.9387594-2.6583169-1.8047354-4.1029025-2.5184831-.7737544-.382318-1.5690217-.7081237-2.4032197-.9400698-.354526-.0986099-.6884127-.0938596-1.0420106.0019656-1.5956126.4324966-3.0221797 1.2223584-4.4202449 2.072227-.7060489.4291659-1.3879094.8966073-2.0535533 1.3859984-.1912137.1405436-.3396745.1528289-.5300691.0003276-.6954016-.5569328-1.385234-1.120254-2.0560104-1.7066169-.28982351-.2532954-.29495602-.2853462-.00933686-.5475415 1.58873286-1.4583997 3.22578786-2.8565195 5.04630296-4.0249319 1.287607-.8264446 2.6167108-1.5658548 4.1005-1.9863392.1132976-.0321056.2290524-.0559663.3444248-.0800454.0441178-.009173.0904197-.0081356.1550676-.0132681"/></g><path d="m28.3147627 20.1307077c-.0356.0670504-.0629007.1352473-.1041792.1936161-.5201316.7355881-1.0853093 1.4341021-1.6991912 2.0943951-.1593265.1713934-.2738254.1648412-.4545009.0305221-1.5413936-1.1458074-3.1443773-2.191094-4.9242146-2.9372202-.5951537-.2494731-1.2060326-.4492046-1.8394618-.5855438-.3070775-.0661222-.5918777-.0303583-.8853049.044227-1.7828949.4533542-3.3799818 1.3073725-4.9145502 2.2902497-.5962457.3818813-1.1742.793138-1.7494789 1.2063603-.1693185.1216516-.2737707.1146081-.4112566-.0365829-.6060194-.6665721-1.1816805-1.3567866-1.69607898-2.0973435-.0940234-.1354111-.13147985-.2461425.01190307-.3781683 2.23865161-2.0614706 4.54331621-4.0326307 7.31706021-5.3630996.4999837-.2398087 1.0170577-.4347897 1.5567911-.5715659.3486836-.0883449.682625-.0557479 1.0197877.0431349 1.36798.4012101 2.5773979 1.1176332 3.7529084 1.8969024 1.5954488 1.0576264 3.0453852 2.298713 4.4628885 3.5792764.161729.1461676.3235671.2923351.4798905.4441266.0362007.0351633.0500148.0934228.0769878.1467136" fill="#c04348"/><path d="m27.9342192 13.4472241c-.026973.0335252-.0559663.0790081-.0938596.1151542-.3941664.3760388-.7864219.7540979-1.1859393 1.1243491-.3256419.3017811-.6703397.5835236-.9863718.8947508-.1361755.1341553-.2302535.1267296-.3644633.0229325-.8045496-.6219629-1.6465557-1.1910172-2.5322973-1.6885439-1.1814074-.6636237-2.4024554-1.2527167-3.7612077-1.4393439-.4028482-.055311-.8177086.1254192-1.2117658.2526947-1.3119045.4237604-2.5294579 1.0457233-3.6883697 1.788082-.5496708.3521236-1.0939363.7113453-1.6101912 1.1117909-.089.0690706-.1746694.1120418-.2860559.0076987-.7281624-.6820243-1.4586181-1.3617007-2.1970455-2.0325864-.16647926-.1512455-.12268904-.2409553.0233147-.3619518.6619856-.548688 1.307864-1.1174147 1.9807153-1.6522887 1.164481-.9257097 2.3766836-1.78480596 3.6740642-2.51799167.79969-.45193462 1.6250972-.84440848 2.4972978-1.14127553.5101395-.173632.9955993-.16839028 1.5055205.00507791 1.1414939.38837877 2.1915307.95508524 3.2168878 1.577212 1.0011687.60749359 1.9455521 1.29623389 2.86329 2.01997359.6895048.543774 1.3742045 1.0959019 2.0059958 1.7084188.0570036.0552565.131589.1002479.150481.2058467" fill="#ede3d8"/><path d="m18.8916446 33.2631461c-.3441518-.0146332-.6843177-.1428369-1.0011687-.3236217-1.6335605-.9320435-3.2299922-1.9234386-4.7702391-3.0040522-.1344829-.0943509-.2181866-.1728129-.034235-.2999246 1.6240599-1.1219467 3.2711614-2.1989566 5.1555056-2.8544447.4710997-.163913.9108036-.159108 1.3784633.0027301 1.5504574.5366757 2.9436086 1.3673794 4.3029615 2.2639866.2805959.1850436.5510359.3854849.8312496.5711838.1506995.0998657.1514639.1788737.003276.2814695-1.5832727 1.0963387-3.1982687 2.1424988-4.8766568 3.088138-.2956659.1665885-.6168851.2643247-.9891564.2745352" fill="#305877"/><path d="m29.9565133 14.7722875c-.0719098 1.2618898-.3393468 2.4806445-.8062967 3.6548991-.1182117.2973039-.1593265.3147217-.393839.1106768-.6445678-.5607549-1.2800173-1.1320479-1.9213091-1.6966249-.1195222-.1052167-.1374859-.194872-.0126674-.3131929.8314679-.7883876 1.6593869-1.5805426 2.489053-2.3708413.0313957-.0299215.0568399-.0708724.1119325-.0658491.1481879.0134865.5442108.5153267.5331267.6809323" fill="#c04348"/><path d="m7.90886873 14.8467145c-.00966443-.2586462.25187561-.6406366.49321317-.7361888.08463196-.0335252.11646449.022605.15954488.0633921.80569619.7631618 1.61030042 1.5274702 2.41599652 2.2906321.1279308.1212147.1909406.2278509.0195473.3770216-.6448409.5611917-1.27881613 1.1348326-1.92300179 1.6967342-.22899768.1996768-.28114188.1816037-.39389349-.1104584-.44500026-1.1529602-.70135317-2.3471443-.77140659-3.5811328" fill="#c04348"/><path d="m19.1172297 37.9685024c-1.1289357 0-2.0245055-.0805369-2.9176183-.1938891-.0607166-.0076987-.1381958.0031669-.156651-.0774246-.0199841-.0874712.0620269-.1014491.1157-.1249823.9989846-.4382296 1.8518563-1.0678367 2.5416886-1.9172139.1517916-.1869002.2965394-.1813309.4487132.0091183.6721415.841187 1.5210273 1.447534 2.4916739 1.8951552.063392.0292116.1549037.0449368.1285314.142673-.0203663.0755136-.1019953.0609896-.1628756.0692344-.9015214.1224161-1.8068103.1935615-2.4891622.197329" fill="#27384d"/></g></svg>