<?xml version="1.0" encoding="UTF-8"?>
<svg width="139px" height="38px" viewBox="0 0 139 38" version="1.1" xmlns="http://www.w3.org/2000/svg" xmlns:xlink="http://www.w3.org/1999/xlink">
    <title>banner-nalufx</title>
    <g id="Page-1" stroke="none" stroke-width="1" fill="none" fill-rule="evenodd">
        <g id="banner-nalufx" fill-rule="nonzero">
            <g id="Group" transform="translate(43, 8)" fill="#C04348">
                <path d="M17.0465322,22.1081306 L13.2357887,22.1081306 L2.73442667,5.32340512 L2.61806809,5.32340512 C2.65685429,6.099129 2.70048875,6.98636319 2.7489715,7.98510768 C2.79745424,8.98385218 2.83139216,10.006838 2.85078526,11.0540653 L2.85078526,22.1081306 L1.77635684e-15,22.1081306 L1.77635684e-15,1.33812369 L3.78165391,1.33812369 L14.2539263,18.0355802 L14.3411952,18.0355802 C14.3218021,17.6283252 14.2975608,17.1144081 14.2684711,16.493829 C14.2393815,15.8732499 14.2151401,15.2090363 14.195747,14.5011883 C14.1763539,13.7933402 14.1569608,13.1291267 14.1375677,12.5085476 L14.1375677,1.33812369 L17.0465322,1.33812369 L17.0465322,22.1081306 Z" id="Path"></path>
                <path d="M28.304225,6.13791519 C30.2629278,6.13791519 31.7319549,6.5694116 32.7113063,7.43240442 C33.6906577,8.29539723 34.1803334,9.64806575 34.1803334,11.49041 L34.1803334,22.1081306 L31.99861,22.1081306 L31.3877275,19.9264071 L31.2713689,19.9264071 C30.5926105,20.7797034 29.8799142,21.4051308 29.1332799,21.8026893 C28.3866457,22.2002478 27.3539633,22.399027 26.0352327,22.399027 C24.6195366,22.399027 23.4462543,22.0160133 22.5153856,21.249986 C21.5845169,20.4839587 21.1190826,19.2864349 21.1190826,17.6574148 C21.1190826,16.0477878 21.7251169,14.8308709 22.9371855,14.0066643 C24.149254,13.1824577 25.9964465,12.7315682 28.4787629,12.6539958 L31.1550103,12.5667268 L31.1550103,11.6940375 C31.1550103,10.5498448 30.8932035,9.74018296 30.3695899,9.26505208 C29.8459763,8.78992121 29.1090386,8.55235577 28.1587768,8.55235577 C27.3636598,8.55235577 26.5976325,8.66871435 25.8606948,8.90143151 C25.1237571,9.13414868 24.4159091,9.41534858 23.7371507,9.74503123 L22.7481028,7.50512853 C23.4850404,7.11726659 24.3334884,6.79243222 25.2934467,6.53062541 C26.253405,6.2688186 27.2569978,6.13791519 28.304225,6.13791519 L28.304225,6.13791519 Z M31.1259207,14.5739124 L29.0314662,14.6320917 C27.2473013,14.7096641 26.0109913,15.0102571 25.3225364,15.5338707 C24.6340814,16.0574843 24.289854,16.7750289 24.289854,17.6865044 C24.289854,18.5010145 24.5322677,19.092504 25.0170951,19.4609728 C25.5019225,19.8294417 26.1321982,20.0136761 26.9079221,20.0136761 C28.1102941,20.0136761 29.1138868,19.6742969 29.9187004,18.9955385 C30.7235139,18.3167801 31.1259207,17.2986425 31.1259207,15.9411257 L31.1259207,14.5739124 Z" id="Shape"></path>
                <polygon id="Path" points="42.0054481 22.1081306 38.9219456 22.1081306 38.9219456 0 42.0054481 0"></polygon>
                <path d="M60.3319247,6.42881165 L60.3319247,22.1081306 L57.8593048,22.1081306 L57.4229602,20.0427657 L57.2775119,20.0427657 C56.7732914,20.8572758 56.0751399,21.4536135 55.1830575,21.8317789 C54.290975,22.2099443 53.3504098,22.399027 52.3613619,22.399027 C50.5190176,22.399027 49.1130181,21.9481375 48.1433633,21.0463585 C47.1737084,20.1445795 46.688881,18.6949455 46.688881,16.6974565 L46.688881,6.42881165 L49.8014731,6.42881165 L49.8014731,16.2320222 C49.8014731,17.4537873 50.0584316,18.3652628 50.5723487,18.9664488 C51.0862657,19.5676349 51.886231,19.8682279 52.9722444,19.8682279 C54.5818715,19.8682279 55.6969745,19.3979453 56.3175536,18.4573801 C56.9381327,17.5168148 57.2484223,16.1544498 57.2484223,14.3702849 L57.2484223,6.42881165 L60.3319247,6.42881165 Z" id="Path"></path>
                <polygon id="Path" points="68.6224737 22.1081306 65.5098816 22.1081306 65.5098816 1.33812369 77.2039191 1.33812369 77.2039191 4.01437108 68.6224737 4.01437108 68.6224737 10.7922585 76.6512158 10.7922585 76.6512158 13.4685059 68.6224737 13.4685059"></polygon>
                <polygon id="Path" points="95.7631129 22.1081306 92.1850865 22.1081306 86.890771 13.4394162 81.5382763 22.1081306 78.192967 22.1081306 85.087213 11.3158721 78.6293117 1.33812369 82.1200692 1.33812369 87.0071296 9.27959691 91.9232797 1.33812369 95.2685889 1.33812369 88.8106876 11.3449617"></polygon>
            </g>
            <g id="nalufx" transform="translate(0, 0)">
                <g id="Group" fill="#27384D">
                    <path d="M0.95430084,14.5367432 C1.08927515,13.8450544 1.25122249,13.1843245 1.46449501,12.5372996 C3.11885857,7.51742362 6.30129298,3.84303186 11.1172333,1.62480109 C13.2447168,0.644926889 15.4963635,0.149202053 17.8312772,0.0196332644 C17.9006754,0.015756575 17.9979748,-0.0194612374 18.0227638,0.0681737841 C18.0441675,0.143796529 17.9575153,0.188624162 17.8968533,0.227391057 C17.527585,0.463104695 17.1280129,0.627672891 16.7134802,0.769745369 C11.799476,2.45348441 8.47890042,5.74239128 7.02721673,10.7382428 C5.64602327,15.4915554 6.84506693,19.6871707 10.1797842,23.3015557 C10.4119488,23.5532129 10.4172451,23.5456234 10.1641683,23.7723278 C9.52069245,24.3486441 8.87825403,24.926107 8.23614322,25.5038976 C7.98071852,25.7337142 7.93763813,25.7392835 7.69941284,25.5001301 C5.19114017,22.9822476 3.189458,20.1185207 1.79925533,16.839169 C1.51248951,16.1627141 1.24133966,15.4798161 1.02124198,14.7779715 C0.994432768,14.6923568 0.973138269,14.6049947 0.95430084,14.5367432" id="Path"></path>
                    <path d="M31.3713084,14.2142189 C31.2712244,10.7892458 30.0234763,7.64699788 27.6408412,4.96247234 C25.8182512,2.90891897 23.5702627,1.50730464 20.9501666,0.696748945 C20.6100554,0.591532317 20.2919484,0.437993576 19.9930611,0.245906344 C19.9223525,0.200478096 19.7999365,0.16203881 19.840123,0.0547473344 C19.8734298,-0.0341435161 19.9863998,0.010902523 20.0631146,0.0152160225 C22.6798254,0.16203881 25.1782151,0.774501138 27.5083239,1.9868129 C32.2343905,4.44561683 35.2065009,8.30931115 36.6345969,13.414256 C36.8490706,14.1810214 36.8270117,14.8632096 36.5367514,15.6153965 C35.0993732,19.3411134 32.9782235,22.6131485 30.1720463,25.4470631 C29.8810216,25.7410363 29.868791,25.7359037 29.5576184,25.4588024 C28.9328707,24.9023609 28.3124367,24.340787 27.6751853,23.7989241 C27.4735429,23.6274761 27.4461877,23.5322515 27.6435713,23.3235655 C29.2992999,21.5729945 30.4500214,19.5396436 31.0219696,17.1897146 C31.24649,16.267281 31.3598968,15.3314153 31.3713084,14.2142189" id="Path"></path>
                    <path d="M0.00209309289,18.317116 C0.00209309289,17.8715697 -0.000363963748,17.4260234 0.0040587383,16.9804771 C0.00504156096,16.8862353 -0.015761519,16.7497322 0.114134877,16.7350445 C0.219078498,16.7232506 0.238079737,16.8503623 0.270949695,16.9312268 C0.915189957,18.5171203 1.70117509,20.0299574 2.62715785,21.4689191 C4.61164063,24.5527982 7.11696482,27.155258 9.98762605,29.4201183 C12.2617139,31.2142064 14.6814233,32.786286 17.2159046,34.1848426 C17.279515,34.2199512 17.3389212,34.2629224 17.4037329,34.2953555 C17.6223563,34.404831 17.6204999,34.5553667 17.5003225,34.741011 C17.3301304,35.0037523 17.1140186,35.225215 16.8754111,35.4215612 C15.8474332,36.2671162 14.6528668,36.7419288 13.3564145,36.9883989 C13.2386943,37.0107308 13.1403573,36.9745847 13.0395089,36.9389847 C7.40859015,34.9524271 3.57765657,31.0971414 1.36319329,25.604473 C0.368958956,23.1383526 -0.0329063144,20.7987978 0.00209309289,18.317116" id="Path"></path>
                    <path d="M37.8772232,18.3833909 C37.7543704,23.9723213 35.7615336,28.7735739 31.7663595,32.7032811 C29.803062,34.6344184 27.496814,36.0401825 24.8787382,36.9209554 C24.7095289,36.9778499 24.5520588,37.000018 24.3761336,36.9615241 C23.0357818,36.6683699 21.7889075,36.1807807 20.7523026,35.246717 C20.59587,35.105682 20.4599128,34.9471745 20.345687,34.7713038 C20.1847225,34.5234687 20.1996832,34.4438601 20.4623153,34.2979655 C21.3277452,33.8171468 22.1838385,33.3204391 23.0238788,32.7966493 C26.1666727,30.8372284 29.1321763,28.6525774 31.6960876,25.9589336 C34.1982995,23.3300466 36.1442339,20.3384436 37.5415347,16.9893662 C37.5589525,16.9475417 37.5774623,16.9060993 37.5930237,16.8636195 C37.6202151,16.7895802 37.6598011,16.7278808 37.7503299,16.7511409 C37.8303208,16.771671 37.8231679,16.8459287 37.8258434,16.908338 C37.8465919,17.3989848 37.8915834,17.8889219 37.8772232,18.3833909" id="Path"></path>
                    <path d="M18.9663227,20.3492875 C19.6036832,20.4299881 20.2147805,20.6604054 20.8113538,20.9269688 C22.5308022,21.6952085 24.0788025,22.7409319 25.5573499,23.8951479 C26.5466701,24.6674827 27.4927462,25.4913065 28.4223326,26.3342407 C28.4895468,26.3952303 28.5556689,26.4579672 28.6176959,26.5241985 C28.7549089,26.6706937 28.7523426,26.7928367 28.5871738,26.9348546 C27.8910078,27.533612 27.180973,28.1150062 26.4636216,28.6881011 C26.2759571,28.8379815 26.1345398,28.8477551 25.9373747,28.7060648 C24.6310942,27.7673054 23.2790578,26.9013294 21.8344722,26.1875817 C21.0607178,25.8052637 20.2654505,25.479458 19.4312525,25.2475119 C19.0767265,25.148902 18.7428398,25.1536523 18.3892419,25.2494775 C16.7936293,25.6819741 15.3670622,26.4718359 13.968997,27.3217045 C13.2629481,27.7508704 12.5810876,28.2183118 11.9154437,28.7077029 C11.72423,28.8482465 11.5757692,28.8605318 11.3853746,28.7080305 C10.689973,28.1510977 10.0001406,27.5877765 9.3293642,27.0014136 C9.03954069,26.7481182 9.03440818,26.7160674 9.32002734,26.4538721 C10.9087602,24.9954724 12.5458152,23.5973526 14.3663303,22.4289402 C15.6539373,21.6024956 16.9830411,20.8630854 18.4668303,20.442601 C18.5801279,20.4104954 18.6958827,20.3866347 18.8112551,20.3625556 C18.8553729,20.3533826 18.9016748,20.35442 18.9663227,20.3492875" id="Path"></path>
                </g>
                <path d="M28.3147627,20.1307077 C28.2791627,20.1977581 28.251862,20.265955 28.2105835,20.3243238 C27.6904519,21.0599119 27.1252742,21.7584259 26.5113923,22.4187189 C26.3520658,22.5901123 26.2375669,22.5835601 26.0568914,22.449241 C24.5154978,21.3034336 22.9125141,20.258147 21.1326768,19.5120208 C20.5375231,19.2625477 19.9266442,19.0628162 19.293215,18.926477 C18.9861375,18.8603548 18.7013373,18.8961187 18.4079101,18.970704 C16.6250152,19.4240582 15.0279283,20.2780765 13.4933599,21.2609537 C12.8971142,21.642835 12.3191599,22.0540917 11.743881,22.467314 C11.5745625,22.5889656 11.4701103,22.5819221 11.3326244,22.4307311 C10.726605,21.764159 10.1509439,21.0739445 9.63654542,20.3333876 C9.54252202,20.1979765 9.50506557,20.0872451 9.64844849,19.9552193 C11.8871001,17.8937487 14.1917647,15.9225886 16.9655087,14.5921197 C17.4654924,14.352311 17.9825664,14.15733 18.5222998,14.0205538 C18.8709834,13.9322089 19.2049248,13.9648059 19.5420875,14.0636887 C20.9100675,14.4648988 22.1194854,15.1813219 23.2949959,15.9605911 C24.8904447,17.0182175 26.3403811,18.2593041 27.7578844,19.5398675 C27.9196134,19.6860351 28.0814515,19.8322026 28.2377749,19.9839941 C28.2739756,20.0191574 28.2877897,20.0774169 28.3147627,20.1307077" id="Path" fill="#C04348"></path>
                <path d="M27.9342192,13.4472241 C27.9072462,13.4807493 27.8782529,13.5262322 27.8403596,13.5623783 C27.4461932,13.9384171 27.0539377,14.3164762 26.6544203,14.6867274 C26.3287784,14.9885085 25.9840806,15.270251 25.6680485,15.5814782 C25.531873,15.7156335 25.437795,15.7082078 25.3035852,15.6044107 C24.4990356,14.9824478 23.6570295,14.4133935 22.7712879,13.9158668 C21.5898805,13.2522431 20.3688325,12.6631501 19.0100802,12.4765229 C18.607232,12.4212119 18.1923716,12.6019421 17.7983144,12.7292176 C16.4864099,13.152978 15.2688565,13.7749409 14.1099447,14.5172996 C13.5602739,14.8694232 13.0160084,15.2286449 12.4997535,15.6290905 C12.4107535,15.6981611 12.3250841,15.7411323 12.2136976,15.6367892 C11.4855352,14.9547649 10.7550795,14.2750885 10.0166521,13.6042028 C9.85017284,13.4529573 9.89396306,13.3632475 10.0399668,13.242251 C10.7019524,12.693563 11.3478308,12.1248363 12.0206821,11.5899623 C13.1851631,10.6642526 14.3973657,9.80515634 15.6947463,9.07197063 C16.4944363,8.62003601 17.3198435,8.22756215 18.1920441,7.9306951 C18.7021836,7.7570631 19.1876434,7.76230482 19.6975646,7.93577301 C20.8390585,8.32415178 21.8890953,8.89085825 22.9144524,9.51298501 C23.9156211,10.1204786 24.8600045,10.8092189 25.7777424,11.5329586 C26.4672472,12.0767326 27.1519469,12.6288605 27.7837382,13.2413774 C27.8407418,13.2966339 27.9153272,13.3416253 27.9342192,13.4472241" id="Path" fill="#EDE3D8"></path>
                <path d="M18.8916446,33.2631461 C18.5474928,33.2485129 18.2073269,33.1203092 17.8904759,32.9395244 C16.2569154,32.0074809 14.6604837,31.0160858 13.1202368,29.9354722 C12.9857539,29.8411213 12.9020502,29.7626593 13.0860018,29.6355476 C14.7100617,28.5136009 16.3571632,27.436591 18.2415074,26.7811029 C18.7126071,26.6171899 19.152311,26.6219949 19.6199707,26.783833 C21.1704281,27.3205087 22.5635793,28.1512124 23.9229322,29.0478196 C24.2035281,29.2328632 24.4739681,29.4333045 24.7541818,29.6190034 C24.9048813,29.7188691 24.9056457,29.7978771 24.7574578,29.9004729 C23.1741851,30.9968116 21.5591891,32.0429717 19.880801,32.9886109 C19.5851351,33.1551994 19.2639159,33.2529356 18.8916446,33.2631461" id="Path" fill="#305877"></path>
                <path d="M29.9565133,14.7722875 C29.8846035,16.0341773 29.6171665,17.252932 29.1502166,18.4271866 C29.0320049,18.7244905 28.9908901,18.7419083 28.7563776,18.5378634 C28.1118098,17.9771085 27.4763603,17.4058155 26.8350685,16.8412385 C26.7155463,16.7360218 26.6975826,16.6463665 26.8224011,16.5280456 C27.653869,15.739658 28.481788,14.947503 29.3114541,14.1572043 C29.3428498,14.1272828 29.368294,14.0863319 29.4233866,14.0913552 C29.5715745,14.1048417 29.9675974,14.6066819 29.9565133,14.7722875" id="Path" fill="#C04348"></path>
                <path d="M7.90886873,14.8467145 C7.8992043,14.5880683 8.16074434,14.2060779 8.4020819,14.1105257 C8.48671386,14.0770005 8.51854639,14.1331307 8.56162678,14.1739178 C9.36732297,14.9370796 10.1719272,15.701388 10.9776233,16.4645499 C11.1055541,16.5857646 11.1685639,16.6924008 10.9971706,16.8415715 C10.3523297,17.4027632 9.71835447,17.9764041 9.07416881,18.5383057 C8.84517113,18.7379825 8.79302693,18.7199094 8.68027532,18.4278473 C8.23527506,17.2748871 7.97892215,16.080703 7.90886873,14.8467145" id="Path" fill="#C04348"></path>
                <path d="M19.1172297,37.9685024 C17.988294,37.9685024 17.0927242,37.8879655 16.1996114,37.7746133 C16.1388948,37.7669146 16.0614156,37.7777802 16.0429604,37.6971887 C16.0229763,37.6097175 16.1049873,37.5957396 16.1586604,37.5722064 C17.157645,37.1339768 18.0105167,36.5043697 18.700349,35.6549925 C18.8521406,35.4680923 18.9968884,35.4736616 19.1490622,35.6641108 C19.8212037,36.5052978 20.6700895,37.1116448 21.6407361,37.559266 C21.7041281,37.5884776 21.7956398,37.6042028 21.7692675,37.701939 C21.7489012,37.7774526 21.6672722,37.7629286 21.6063919,37.7711734 C20.7048705,37.8935895 19.7995816,37.9647349 19.1172297,37.9685024" id="Path" fill="#27384D"></path>
            </g>
        </g>
    </g>
</svg>