<svg fill="none" height="20" viewBox="0 0 22 20" width="22" xmlns="http://www.w3.org/2000/svg"><path d="m10.1748 3.82521v-3.82499638h1.65v3.82499638zm6.4752 2.7-1.1754-1.2 2.7252-2.7 1.1502 1.1748zm1.5246 5.29979v-1.65h3.825v1.65zm.0252 7.5252-2.7-2.7 1.1748-1.1754 2.7252 2.7zm-12.8502-12.82499-2.7-2.7252 1.1754-1.1748 2.7 2.7246zm-.3498 11.79959h4.5c.5168 0 .9502-.175 1.3002-.525s.525-.7832.525-1.2996c0-.5-.1708-.9334-.5124-1.3002-.342-.3668-.7712-.5502-1.2876-.5502h-1.1502l-.4752-1.0746c-.25-.5836-.6374-1.0462-1.1622-1.3878-.5252-.3416-1.1044-.5124-1.7376-.5124-.9332 0-1.7208.3208-2.3628.9624-.6416.6416-.9624 1.4292-.9624 2.3628 0 .9164.3208 1.6996.9624 2.3496.642.65 1.4296.975 2.3628.975zm0 1.6752c-1.3832 0-2.5624-.4876-3.5376-1.4628-.9748-.9748-1.4622-2.1538-1.4622-3.537 0-1.3836.4874-2.5628 1.4622-3.5376.9752-.9752 2.1544-1.46279 3.5376-1.46279.9668 0 1.8544.27099 2.6628.81299.808.5416 1.4038 1.2624 1.7874 2.1624 1 0 1.8374.3624 2.5122 1.0872.6752.7252 1.0128 1.596 1.0128 2.6124-.0668.9336-.4294 1.7212-1.0878 2.3628s-1.4542.9624-2.3874.9624zm7.9752-3.3252c-.0668-.2832-.1294-.5582-.1878-.825-.0584-.2664-.1208-.5414-.1872-.825.8332-.3332 1.4956-.8624 1.9872-1.5876.4916-.7248.7374-1.5372.7374-2.4372 0-1.19999-.4208-2.22079-1.2624-3.06239s-1.8624-1.2624-3.0624-1.2624c-1.0832 0-2.029.3458-2.8374 1.0374s-1.2876 1.5624-1.4376 2.61239c-.2832-.05-.5706-.1-.8622-.15-.292-.05-.5796-.1084-.8628-.17519.2332-1.4664.9206-2.6664 2.0622-3.6 1.142-.9332 2.4546-1.3998 3.9378-1.3998 1.6668 0 3.0834.5834 4.2498 1.7502 1.1668 1.1664 1.7502 2.583 1.7502 4.24979 0 1.3-.3708 2.4624-1.1124 3.4872-.7416 1.0252-1.7124 1.7544-2.9124 2.1876z" fill="#defb3a"/></svg>