<svg fill="none" height="43" viewBox="0 0 59 43" width="59" xmlns="http://www.w3.org/2000/svg"><path d="m14.3469 43c-3.9777 0-7.36332-1.3997-10.15675-4.1991-2.79343-2.7993-4.19015-6.1921-4.19015-10.1783 0-3.5841 1.11727-6.6636 3.3518-9.2383 2.23453-2.5757 5.02796-4.1995 8.3803-4.8714.8947-4.1658 3.0069-7.62628 6.3367-10.38157 3.3298-2.75422 7.1627-4.13133 11.4988-4.13133 5.0505 0 9.3415 1.83615 12.8729 5.50844 3.5305 3.67336 5.2957 8.08586 5.2957 13.23736v1.0739c3.3523.0903 6.0679 1.2664 8.1469 3.5283 2.0779 2.2618 3.1169 4.9381 3.1169 8.0288 0 3.1799-1.1398 5.9121-3.4194 8.1965-2.2796 2.2845-5.006 3.4267-8.1791 3.4267zm0-4.5006h33.0546c1.9663 0 3.6425-.6945 5.0285-2.0834 1.3859-1.3889 2.0789-3.0687 2.0789-5.0392s-.693-3.6502-2.0789-5.0392c-1.386-1.3889-3.0622-2.0834-5.0285-2.0834h-4.1564v-5.5084c0-3.897-1.3189-7.2452-3.9568-10.04453-2.6368-2.80045-5.8771-4.20067-9.7207-4.20067-3.0402 0-5.8004.90732-8.2805 2.72197-2.4813 1.81357-4.1687 4.19853-5.0623 7.15483 3.5314.5375 6.4702 2.0495 8.8163 4.5361 2.3472 2.4854 3.5208 5.5874 3.5208 9.306h-4.4927c0-2.7328-.9612-4.9952-2.8835-6.7872-1.9213-1.791-4.2454-2.6865-6.9723-2.6865-2.727 0-5.02908.9627-6.90639 2.888-1.8773 1.9265-2.81596 4.2561-2.81596 6.9888 0 2.7316.96119 5.0607 2.88355 6.9871 1.92236 1.9265 4.2465 2.8897 6.9723 2.8897z" fill="#defb3a"/></svg>