<svg fill="none" height="20" viewBox="0 0 20 20" width="20" xmlns="http://www.w3.org/2000/svg"><path d="m9 15h2v-6h-2zm1-8c.2833 0 .521-.096.713-.288.1913-.19133.287-.42867.287-.712s-.0957-.521-.287-.713c-.192-.19133-.4297-.287-.713-.287-.28333 0-.52067.09567-.712.287-.192.192-.288.42967-.288.713s.096.52067.288.712c.19133.192.42867.288.712.288zm0 13c-1.38333 0-2.68333-.2627-3.9-.788-1.21667-.5247-2.275-1.237-3.175-2.137s-1.61233-1.9583-2.137-3.175c-.525333-1.2167-.788-2.5167-.788-3.9 0-1.38333.262667-2.68333.788-3.9.52467-1.21667 1.237-2.275 2.137-3.175s1.95833-1.61267 3.175-2.138c1.21667-.524667 2.51667-.787 3.9-.787 1.3833 0 2.6833.262333 3.9.787 1.2167.52533 2.275 1.238 3.175 2.138s1.6123 1.95833 2.137 3.175c.5253 1.21667.788 2.51667.788 3.9 0 1.3833-.2627 2.6833-.788 3.9-.5247 1.2167-1.237 2.275-2.137 3.175s-1.9583 1.6123-3.175 2.137c-1.2167.5253-2.5167.788-3.9.788zm0-2c2.2333 0 4.125-.775 5.675-2.325s2.325-3.4417 2.325-5.675c0-2.23333-.775-4.125-2.325-5.675s-3.4417-2.325-5.675-2.325c-2.23333 0-4.125.775-5.675 2.325s-2.325 3.44167-2.325 5.675c0 2.2333.775 4.125 2.325 5.675s3.44167 2.325 5.675 2.325z" fill="#896fff"/></svg>