<svg fill="none" height="56" width="56" xmlns="http://www.w3.org/2000/svg" xmlns:xlink="http://www.w3.org/1999/xlink"><linearGradient id="a" gradientUnits="userSpaceOnUse" x1="19.5" x2="25.5" y1="18" y2="30.5"><stop offset="0" stop-color="#0064e0"/><stop offset="1" stop-color="#0082fb"/></linearGradient><linearGradient id="b" gradientUnits="userSpaceOnUse" x1="42.5" x2="32" y1="32" y2="28"><stop offset="0" stop-color="#0181fa"/><stop offset="1" stop-color="#0967df"/></linearGradient><linearGradient id="c" gradientUnits="userSpaceOnUse" x1="22.5" x2="49" y1="29" y2="30"><stop offset="0" stop-color="#0082fb"/><stop offset="1" stop-color="#0180f9"/></linearGradient><clipPath id="d"><path d="m0 0h36v24h-36z" transform="translate(10 16)"/></clipPath><path d="m0 0h56v56h-56z" fill="#f0f3fa"/><g clip-path="url(#d)"><path clip-rule="evenodd" d="m28.496 21.052a.97.97 0 0 0 -.01.012c-2.869-3.667-5.269-5.064-8.141-5.064-5.857 0-10.345 7.646-10.345 15.742 0 5.064 2.442 8.258 6.533 8.258 2.945 0 5.062-1.392 8.827-7.994 0 0 1.561-2.765 2.64-4.68v-.076zm-11.816 15.04c1.699 0 2.756-1.074 5.809-5.874 0 0 1.387-2.21 3.676-5.739-2.41-3.465-3.987-4.557-5.872-4.557-3.481 0-6.402 6.01-6.402 11.884 0 2.746 1.04 4.287 2.79 4.287z" fill="url(#a)" fill-rule="evenodd"/><path clip-rule="evenodd" d="m28.015 27.322.485-5.822-.036-.465.023.029c2.09-2.834 4.397-5.064 7.349-5.064 5.573 0 10.162 7.118 10.164 15.593 0 5.17-2.218 8.407-6.203 8.407-3.473 0-5.39-1.958-8.827-7.73l-1.766-2.979a138.95 138.95 0 0 0 -1.19-1.97zm3.883-1.24 2.11 3.53c3.301 5.329 4.131 6.48 5.87 6.483 1.814 0 2.69-1.557 2.69-4.238 0-7.035-3.101-12.761-6.979-12.761-1.866 0-3.435 1.469-5.337 4.414a76.404 76.404 0 0 1 1.646 2.572z" fill="url(#b)" fill-rule="evenodd"/><path d="m28.487 21.064c2.09-2.834 4.397-5.064 7.349-5.064 5.573 0 10.162 7.118 10.164 15.593l-3.433.264c0-7.035-3.1-12.761-6.978-12.761-1.866 0-3.435 1.469-5.337 4.414l-2.244 3.801a6715.759 6715.759 0 0 1 -2.648 4.695c-3.765 6.602-5.882 7.994-8.827 7.994l.148-3.907c1.699 0 2.756-1.075 5.809-5.875 0 0 1.387-2.21 3.676-5.739l2.32-3.415z" fill="url(#c)"/><path d="m31.898 26.082c-4.576-7.466-7.624-10.082-11.554-10.082l-.05 3.922c2.574 0 4.569 2.035 8.908 9.367l.266.446z" fill="#0466e0"/></g></svg>