<!-- by TradingView --><svg width="56" height="56" xmlns="http://www.w3.org/2000/svg"><path fill="#FEF200" d="M0 0h56v56H0z"/><path d="M38.785 9c.695 0 1.256.526 1.256 1.177v35.646c0 .65-.561 1.177-1.256 1.177H16.296c-.693 0-1.255-.527-1.255-1.177V10.177c0-.65.562-1.177 1.255-1.177h22.49z" fill="#fff"/><path d="M15.155 14.249h24.89v31.468c0 .261-.05.423-.242.599-.21.19-.393.207-.725.207l-23.18.002a.723.723 0 01-.473-.17.648.648 0 01-.27-.523V14.249z" fill="#FFF200"/><path d="M40 13H15.123v2H40v-2z" fill="#ED1C24"/><path d="M15.85 9.437H39c.37 0 .713.306.713.604v.953H15.155l.002-.838v-.07c0-.337.304-.616.692-.65z" fill="#009A4E"/><path d="M38.744 9C39.44 9 40 9.526 40 10.177v35.646c0 .65-.561 1.177-1.256 1.177H16.255C15.562 47 15 46.473 15 45.823V10.177C15 9.527 15.562 9 16.255 9h22.49zm0 .47H16.255c-.416 0-.753.317-.753.707v35.646c0 .39.337.706.753.706h22.49c.416 0 .753-.315.753-.706V10.177c0-.39-.337-.707-.754-.707z" fill="#000"/><path d="M27.099 16.281s-.016.138-.049.218c-.032.074-.117.124-.111.174.005.05.06.108.145.15.084.04.118.073.204.093.08.02.18.074.209.011.028-.064-.015-.142-.063-.217-.084-.131-.127-.163-.25-.343-.027-.039-.048-.08-.085-.086z" fill="#000"/><path d="M26.47 30.419c.008-.024.206.096.31.153.217.124.315.197.507.333.152.11.226.166.378.29.188.154.29.285.34.255.073-.083-.12-.326-.29-.457-.166-.13-.337-.236-.47-.318-.17-.107-.184-.131-.439-.293a4.05 4.05 0 01-.51-.392l-.265-.198-.416-.332-.463-.404-.35-.369s-.271-.315-.314-.375c-.044-.06-.172-.255-.278-.42a5.529 5.529 0 00-.294-.397c-.099-.114-.325-.068-.587-.214-.319-.178-.396-.341-.396-.341s-.011-.024-.024-.037c-.011-.013-.036-.03-.036-.03l-.167-.11-.095-.06s-.072-.056-.163-.093c-.092-.038-.296-.15-.296-.15l-.364-.22-.19-.145c-.049-.035-.138-.084-.138-.084s-.058-.028-.075-.029a10.397 10.397 0 01-.093-.007s-.07-.018-.142.061c-.071.08-.054.038.063.487.046.176.041.8.09.99.063.243.244.558.263.595.018.037.03.173.03.173s-.007.11.005.18c.055.322.552.11.662.551.108.436-.065.87-.065.87s-.106.217-.258.25c-.15.034-.384-.282-.553-.538-.166-.252-.303-.582-.347-.686-.044-.105-.067-.128-.117-.204-.075-.113-.135-.093-.219-.271-.084-.18-.01-.251-.047-.407-.022-.086-.041-.096-.07-.22-.027-.122-.065-.513-.065-.513l-.052-.364s-.019-.166-.043-.27c-.084-.364-.113-.716-.113-.716l-.016-.145-.005-.15s-.005-.071.013-.145a.544.544 0 01.056-.135s.078-.123.091-.154c.013-.03.172-.204.172-.204s.083-.065.218-.143c.136-.079.258-.073.258-.073s.036-.003.276.025c.24.028.735.152.86.183.123.031.27.08.365.13.275.142.358.082.14-.08-.148-.11-.189-.158-.308-.26-.1-.088-.178-.146-.253-.226a7.282 7.282 0 01-.287-.38l-.133-.185s-.072-.077-.084-.082l-.047-.033s-.088.005-.179-.012c-.092-.017-.135.105-.135.105s-.198.35-.399.563c-.325.348-.559.584-.679.769-.168.256-.13.537-.217.667-.05.076-.078.087-.106.154-.084.202.222.312.152.536-.112.354-.988.704-1.104.646-.121-.06-.022-.54.018-.694a1.93 1.93 0 01.176-.398.31.31 0 00.05-.11c.01-.047.012-.15.018-.208.006-.058.031-.15.031-.15s.003-.019.08-.178c.079-.16.364-.532.569-.888.134-.232.19-.372.325-.605.125-.213.337-.539.337-.539s.09-.166.132-.227c.043-.064.133-.183.217-.302.085-.117.106-.205.216-.302a.645.645 0 01.274-.16c.178-.056.3-.026.482.022.188.049.318.13.442.227.123.098.214.206.214.206l.06.084.038.02.114.07.262.165.658.423c.033.02.145.107.166.114.024.007.19-.164.514-.376.377-.247.51-.229.635-.293.122-.064.173-.117.27-.209.146-.138.147-.212.313-.405.166-.193.322-.3.322-.3l.32-.34c.297-.318.429-.558.429-.558l.163-.309s.236-.48.311-.67c.077-.19.077-.254.077-.254s.01-.05-.046-.147c-.06-.096-.12-.053-.233-.03-.216.043-.348-.01-.566-.046-.2-.032-.304-.089-.505-.12-.203-.033-.322-.065-.526-.046a.814.814 0 00-.123.025c-.115.036-.147.045-.232.092a.625.625 0 01-.274.06c-.076.002-.122.004-.192-.022a.319.319 0 01-.167-.121c-.002-.02-.009-.02.012-.053.02-.033.046-.039.046-.039l.093-.022.144-.035.192-.058c.055-.017.116-.047.116-.047s.034-.051.02-.08c-.015-.034-.09-.037-.09-.037l-.116.04c-.012.002-.179.052-.179.052l-.232.05a2.32 2.32 0 01-.248.033l-.044-.011s-.05-.032-.057-.065a.99.99 0 01-.018-.084c-.022-.123-.048-.197-.017-.317a.727.727 0 01.105-.223l.08-.125.152-.213a.596.596 0 01.152-.11.63.63 0 01.273-.078c.119-.012.135-.011.303-.047.17-.036.289-.1.289-.1s.404-.14.65-.254c.258-.12.37-.247.637-.346.113-.042.178-.062.295-.09a.051.051 0 00.026-.034c.011-.04-.054-.058-.099-.054-.04.003-.132.044-.153 0-.016-.034.084-.053.084-.053s.047-.021.048-.046c.002-.038-.068-.013-.098-.017-.157-.016-.17-.043-.278-.068-.128-.03-.197-.068-.33-.073a1.173 1.173 0 00-.299.036c-.072.017-.075-.05-.046-.064.205-.09.21-.098.354-.104.08-.003.19.013.203.019.011.006.17-.001.21-.04.042-.04-.13-.037-.21-.067-.075-.028-.19-.036-.187-.083.004-.047.06-.021.098-.03.05-.012.078-.01.129-.017.091-.012.099-.02.234-.03a1.13 1.13 0 01.325.041s.201.085.3.13c.1.043.219.066.219.066s.14.019.247-.045c.108-.063.047-.104.01-.162-.038-.054-.085-.133-.016-.282.062-.13.094-.281.111-.295.022-.017.107.1.162.148.197.174.458.26.704.625.019.03.11-.017.395.024.285.042.535.331.598.4.065.07.15.066.15.066l.136.018.498.008s.226-.038.356.008c.09.033.394.225.256.298-.097.05-.188-.062-.275-.067-.104-.006-.149.012-.24.034-.194.046-.608.165-.458.212.011.005.033.008.033.008l.074.012s.182.04.292.08c.166.063.245.131.398.216.087.048.125.096.22.123.088.024.145 0 .234.015.118.02.185.042.293.091.16.073.219.161.362.26.072.049.133.056.187.123.012.015.022.023.028.04.02.06-.106.025-.172.015-.073-.012-.103-.046-.17-.075-.1-.045-.148-.094-.257-.112-.078-.015-.126-.003-.206 0-.08.004-.12.015-.2.016a1.381 1.381 0 01-.34-.035c-.147-.03-.22-.083-.366-.112-.165-.033-.457-.167-.429-.033.015.065.17.119.17.119s.106.054.207.097c.102.041.158.105.158.105l.07.049s.071.093.166.2c.092.103.256.1.256.1s.098 0 .312.042c.212.041.431.166.431.166s.165.107.262.215c.096.108.04.162.028.173-.011.012-.007.007-.02.012-.011.006-.13-.136-.13-.136l-.086-.069s-.083-.055-.19-.088c-.109-.032-.145-.01-.145-.01s-.229.06-.429.055a.568.568 0 01-.3-.08l-.127-.08s-.188-.168-.195-.089c-.005.054.083.114.083.114s.06.058.101.094c.077.072.108.107.196.181.087.075.141.075.141.075a2.7 2.7 0 00.115.025s.03.01.166.063c.136.052.283.166.283.166s.014.01.034.014c.02.002.06.021.072.024.012.003.047.003.126.014.08.01.049.059.049.059l-.013.018-.066.041s-.084.023-.141.026a.445.445 0 01-.142-.028l-.176-.063s-.179-.044-.217-.05a8.156 8.156 0 01-.224-.041.868.868 0 01-.127-.045c-.022-.01-.061-.018-.158-.063-.095-.045-.133-.096-.252-.132-.12-.036-.194-.044-.284.015-.155.102.234.118.427.21.286.133.446.23.514.374a.557.557 0 00.137.196s.2.096.29.197c.05.054.057.099.106.153.11.122.324.115.366.219.04.097-.173.053-.284.044-.2-.019-.248-.192-.435-.262-.105-.04-.172-.04-.28-.075-.197-.061-.289-.142-.486-.2-.119-.034-.334-.183-.307-.068.004.027.022.049.03.065.01.017.06.077.06.077s.066.083.096.105c.028.023.155.113.337.207.18.094.337.274.337.274s.054.073.08.124c.027.058.008.075.05.155.04.08.059.095.112.144.133.12.272.096.44.162.047.018.05.025.1.075.05.05-.01.07-.01.07s-.187.046-.308.037c-.158-.012-.228-.058-.381-.13-.155-.072-.236-.201-.252-.21-.013-.008-.051-.046-.08-.066-.03-.02-.105-.034-.172-.052-.069-.017-.107-.02-.176-.038-.093-.025-.19-.064-.233-.077-.044-.015-.144-.032-.217.01-.146.081.227.136.343.254.059.06.084.1.14.163.043.048.06.081.114.119.035.025.102.052.102.052s.09.04.22.108c.132.068.286.263.286.263l.093.135.055.077.015.035.02.044s.068.083.117.11c.05.028.04.053.04.053s-.005.017-.04.035c-.034.02-.053.004-.102-.01-.05-.014-.082-.058-.125-.09-.045-.035-.092-.117-.172-.164-.07-.04-.163-.055-.198-.065-.035-.012-.123-.065-.158-.08a4.95 4.95 0 01-.124-.051s-.176-.093-.272-.118c-.097-.025-.035.03-.035.03s.086.128.17.18c.107.067.259.127.21.181-.034.036-.08.023-.128.018-.081-.01-.18-.1-.18-.1s-.04-.026-.22-.08c-.18-.056-.114.038-.072.088.04.05.095.077.095.077l.123.053.056.016s.05.009.212.045c.163.035.253.11.253.11s.088.077.209.162a.684.684 0 00.312.117c.068.008.065.052.065.052s.01.041.005.055c-.002.013-.017.025-.032.025-.013 0-.02.005-.038.014a.582.582 0 01-.087.02s-.182-.006-.326-.04c-.142-.033-.268-.126-.281-.132-.011-.005-.144-.075-.236-.102a.643.643 0 00-.247-.01c-.015.004-.064.012-.148.035-.086.021.021.052.021.052l.06.006.146.01s.15.017.277.061c.127.044.21.132.294.213.085.08.178.132.178.132l.067.041.035.025.01.022-.01.025c-.006.014-.027.025-.027.025s-.031-.006-.045-.006c-.016 0-.11-.047-.182-.077-.073-.03-.11-.059-.188-.077a.605.605 0 00-.178-.016c-.02.005-.168.025-.283.032-.115.009-.214.01-.348-.005-.192-.022-.447-.166-.48-.126-.066.084.136.108.235.162.135.074.368.14.368.14s.171.036.271.08c.22.097.285.24.462.39.096.084.175.12.305.138.113.015.11.003.288-.03.178-.034.286-.194.338-.135.01.01.006.021.003.038a.284.284 0 01-.018.047s-.02.027-.051.058c-.033.03-.155.093-.22.118a1.15 1.15 0 01-.418.061c-.198-.005-.477-.149-.477-.149l-.2-.08s-.092-.04-.155-.063c-.166-.06-.271-.054-.442-.097-.106-.027-.175-.055-.27-.074-.097-.02-.042.017-.033.03.044.057.105.076.182.11.1.046.171.037.275.078.116.044.217.107.28.146.064.038.11.082.173.143l.212.172s.05.038.055.054c.005.017.029.058.018.125-.013.066-.07.02-.07.02l-.056-.034-.056-.05-.089-.07s-.076-.065-.208-.128c-.13-.064-.287-.08-.287-.08s-.14-.02-.135.022c.007.04.038.044.148.071.111.028.184.08.184.08s.114.08.196.169c.08.088.104.174.104.174s.042.072.146.168c.105.097.16.063.154.11-.005.047-.052.055-.052.055l-.038-.002c-.01 0-.038-.014-.067-.025-.03-.01-.14-.083-.14-.083s-.172-.133-.192-.145l-.184-.13s-.096-.059-.165-.092a2.14 2.14 0 00-.217-.083.829.829 0 00-.148-.021s-.116-.017-.186-.042c-.112-.04-.24-.152-.255-.158a.703.703 0 00-.14-.036c-.02.002-.067.188-.078.294-.047.448.078.746.274 1.157.282.596 1.067 1.338 1.067 1.338s.198.106.28.17c.236.174.624.42.97.746.293.279.684.774.684.774s.227.299.333.51c.128.26.231.656.231.656s.01.068.016.083c.009.014.03.032.043.032l.137.004c.013 0 .17-.01.273-.035.102-.024.345-.13.506-.21.16-.08.352-.233.352-.233s.037-.03.224-.228c.188-.198.31-.495.356-.607.045-.111.082-.326.109-.692.029-.367-.024-.755-.024-.755s-.07-.54-.114-.724c-.042-.183-.145-.483-.145-.483s-.072-.267-.095-.436a4.504 4.504 0 01-.027-.443s0-.168.057-.479c.06-.309.26-.62.26-.62s.056-.105.272-.35c.221-.25.292-.29.51-.44.173-.117.396-.306.47-.262.08.048-.08.144-.133.194-.136.127-.39.353-.596.693-.18.294-.247.489-.291.68-.046.193-.026.403-.02.475.006.072.048.046.048.046s.436-.333.673-.584c.258-.273.487-.758.577-.762.06-.003.088.126.074.187-.056.251-.075.282-.162.45-.099.191-.19.276-.328.453-.144.185-.214.256-.33.5-.167.354-.07.626-.07.626s.02.166.1.163c.13-.004.42-.35.608-.632.14-.207.19-.446.28-.572.084-.11.157.181.121.354-.041.204-.148.389-.383.678-.23.283-.222.553-.222.553s-.024.123-.043.39c-.018.268.063.673.063.673s.072.339.086.596c.014.259.005.845-.25 1.302-.101.183-.318.437-.318.437s-.167.162-.304.257c-.138.095-.467.243-.467.243s-.228.074-.26.08c-.033.009-.053.036-.053.036l.029.058.072.166s.068.21.094.378c.026.167-.004.205-.029.333-.025.122-.08.066-.095.306-.013.213.088.32.07.558-.007.104-.132-.132-.193-.232-.128-.217-.098-.551-.1-.634a1.042 1.042 0 00-.208-.604c-.067-.082-.138-.128-.161-.12-.024.008-.026.051-.026.073-.002.023.046.102.056.119.012.016.096.162.096.162s.038.112.052.332c.015.217-.056.487-.056.487s-.092.303-.189.482c-.108.197-.347.465-.347.465s-.172.149-.301.394c-.127.244-.018.35-.065.383-.05.03-.15-.142-.178-.258-.026-.108-.013-.16.034-.28.044-.118.147-.287.147-.287l.154-.248s.187-.336.245-.581c.058-.243-.009-.513-.009-.513s-.008-.09-.072-.085c-.065.003-.11.056-.137.121-.053.134.023.11-.058.333-.063.176-.081.152-.115.257-.04.124-.062.252-.06.33.004.076-.04.044-.04.044s-.08-.138-.08-.31c0-.094.005-.147.016-.24.018-.15.083-.38.083-.38s.07-.227.055-.434c-.016-.208-.093-.246-.093-.246s-.02-.028-.105-.024c-.085.006-.08.15-.08.15s-.026.205-.06.333c-.093.352-.218.537-.438.834-.2.268-.47.505-.606.615-.135.113-.55.4-.55.4l-.488.307s-.194.178-.281.391a.807.807 0 00-.034.573c.052.196.126.285.165.34.038.053.114.15.138.262.016.069.005.11.01.18.004.063.013.096.01.16-.002.097.018.166-.042.246-.043.06-.16.114-.16.114s-.132.055-.21.101c-.83.473-1.124.781-1.591 1.309-.149.169-.04.158-.198.358-.096.12-.318.12-.398.262-.112.195.251.386-.168.558-.541.22-1.472.062-1.49-.007-.05-.19.182-.408.264-.496.379-.391.717-.4.841-.725.027-.07.016-.129.318-.34.212-.149 1.058-.752 1.427-1.154.127-.138.236-.23.291-.379.056-.151-.055-.246-.055-.246l-.152-.234-.29-.492s-.123-.262-.19-.413a7.598 7.598 0 01-.195-.558s-.093-.366-.109-.604c-.028-.428.034-.677.153-1.092.154-.538.503-.764.643-1.298.04-.155.049-.421-.034-.408-.079.013-.085.223-.146.363-.225.53-.521.762-.684 1.311-.11.372-.154.592-.153.977.001.22-.008.18.052.562.023.14.06.216.103.353.031.098.116.28.116.28s.115.242.156.412c.012.058.028.091.023.15-.007.1.012.122-.04.213-.064.114-.025.181-.23.224-.181.036-.553-.079-.553-.079s-1.528-.438-2.504-.312c-.193.025-.297.092-.491.089-.177-.002-.267-.133-.444-.083-.036.01-.047.034-.08.054-.258.17-.06.453-.741.306-.418-.09-.924-.333-.837-.485.118-.202.275-.235.605-.364.354-.136.884-.098.988-.104.128-.01.311-.094.539-.099.394-.006.465.038.465.038l.669.057 1.281.015s.23-.016.32-.033c.092-.017.165-.189.215-.27.05-.081-.002-.2-.002-.2l-.038-.057-.122-.186-.225-.36-.25-.472s-.164-.329-.25-.545c-.087-.215-.138-.336-.195-.559a2.804 2.804 0 01-.105-.598c-.01-.264-.028-.469.05-.685z" fill="#000"/><path d="M34.787 29.98c.27-.327.295-.631.311-1.06.012-.312-.112-.792-.112-.792l-.017-.035s-.047-.058-.076.018c.004.068.013.122.013.122l.016.619s-.02.311-.133.633c-.189.543-.69.784-.762.98-.125.324.438-.09.76-.484zM31.96 30.982s-.11.03-.112.133c-.002.103.027.192.023.317-.002.159-.155.341-.057.401.17.102.315-.617.264-.723-.052-.107-.102-.13-.118-.128zM30.057 35.969s-.031-.016-.093.006c-.06.022-.056.082-.056.082s-.012.064.037.07c.05.009.13-.106.13-.119 0-.013-.018-.04-.018-.04zM28.267 37.174s-.018.017-.002.029c.017.014.04-.003.04-.003s.31-.229.492-.39c.193-.172.472-.469.472-.469s.02-.022-.002-.041c-.023-.02-.075.01-.12.03-.037.019-.06.039-.09.061l-.118.113-.238.22-.15.133-.147.132-.06.066-.02.032-.021.026s-.023.02-.023.027c0 .005-.006.01-.006.017l-.007.017zM27.733 37.506s-.033-.025-.085 0a.41.41 0 00-.114.102c-.005.01-.034.045-.014.077.02.032.087-.015.097-.017.01 0 .096-.066.096-.066s.05-.03.02-.096zM26.71 38.487s-.044-.077-.101-.044c-.058.032-.09.042-.142.111-.009.012-.066.081-.076.1-.01.017-.067.12.048.127.198.01.068-.11.136-.157.056-.036.159-.027.16-.065.001-.039-.025-.072-.025-.072zM23.206 34.567s-.119.028-.128.067c-.01.04.07.078.082.08.014.003.04.033.12-.019.078-.05.074-.092.074-.092s.047-.052-.148-.036zM25.133 34.508s-.002-.042-.085-.036c-.085.004-.103.019-.106.032-.002.011.005.032.08.038.077.004.108 0 .11-.034zM26.956 34.558c-.154-.001-.105.003-.2.007-.171.009-.264.002-.433-.008-.238-.015-.604-.07-.604-.07s-.046-.011-.065.018c-.017.026.045.088.1.104.3.088.317.073.521.076.114.002.178-.01.291-.016.144-.01.21.011.368-.028.04-.01.08-.082.021-.083zM27.982 34.27s-.031-.035-.094-.005c-.063.029-.101.094-.101.094s-.03.044.033.038a.417.417 0 00.132-.042c.016-.009.062-.05.03-.085zM27.088 22.597s.433-.385.744-.893c.184-.303.264-1.01.106-.834-.071.08-.158.447-.295.718-.195.386-.613.933-.613.933s-.09.182.058.076zM25.355 23.575s-.046.034-.025.088c.022.055.11.014.11.014s.2-.072.41-.08c.211-.008.503.051.503.051s.14.037.163.045c.023.01.099.044.112.048.01.005.083.038.124.004.04-.036-.254-.288-.553-.326-.5-.065-.828.139-.828.139l-.016.017zM23.298 25.24c.036.029.203-.272.342-.463.102-.14.288-.372.288-.372s.085-.107-.058-.047a.826.826 0 00-.328.348c-.094.18-.28.506-.244.534zM22.145 23.932s-.036.116.108.262c.144.146.181.267.273.18.026-.024-.09-.22-.148-.276-.06-.054-.102-.099-.102-.099l-.038-.029-.048-.025-.027-.01s-.008-.007-.018-.003zM21.678 22.815s-.156.027-.194.1c-.04.071.18.028.18.028s.144.007.148-.045c.003-.053-.019-.059-.134-.083zM19.198 26.709c-.08-.022-.094.127-.105.175-.01.048.036.144.055.144.018-.001.082-.095.085-.141.004-.047.035-.157-.035-.178zM21.773 29.61s-.142-.108-.164-.065c-.022.043.117.23.117.23s.043.063.109.035c.064-.03.041-.098.041-.098s-.044-.088-.103-.102zM20.697 26.473s-.036-.01-.05.032c-.013.042-.011.11-.021.191a1.41 1.41 0 00.017.234s.014.135.043.216c.03.088.113.213.113.213s.03.065.069.062c.037-.004.028-.046.028-.046s-.12-.449-.123-.495c-.014-.15-.014-.331-.014-.331v-.027s-.002-.048-.062-.05zM20.884 25.103s-.066-.012-.127.108c-.06.122-.048.17-.043.176.005.005.053.004.131-.108.077-.112.06-.154.06-.154s-.005-.022-.021-.022zM22.692 26.344s.079.112-.073.086c-.152-.026-.472-.265-.602-.33-.129-.064-.34-.084-.252-.16.017-.012.021-.024.046-.025a.491.491 0 01.12.035c.004.002.23.09.238.092.008.003.134.054.224.104.09.05.236.148.236.148l.063.05zM26.905 29.78c.041.123-.48-.261-.76-.465-.739-.54-1.644-1.645-1.531-1.743.093-.08.464.426 1.008.984.582.595 1.259 1.15 1.283 1.224zM29.08 29.25c-.161.164-.219.373-.126.53.091.152.12-.223.22-.333.088-.096.142-.08.286-.178.245-.163-.175-.226-.38-.018zM28.155 25.76c-.111-.017-.108.143-.092.256.074.508.314.899.636 1.267.195.224.73.624.793.56.022-.023-.51-.413-.85-.914-.24-.355-.368-.656-.398-.949-.004-.037.005-.206-.09-.22zM26.08 18.238c-.242.124-.66.233-.66.233s-.02.04.034.035c.36-.027.496-.07.687-.15.191-.078.33-.295.33-.295s.077-.135-.066-.024a2.822 2.822 0 01-.325.2zM28.994 17.366s-.082-.017-.137.015c-.055.034-.04.06-.04.06s.086.062.147.072c.06.008.19.062.186.02-.005-.042-.078-.118-.104-.14-.024-.021-.052-.027-.052-.027zM27.622 19.75c.014.026.258-.037.353-.087.073-.04.102-.171.102-.171s.02-.128-.01-.078c-.14.216-.459.308-.445.335zM27.614 19.154c.099-.18-.271.187-.46.282-.115.057-.303.134-.303.134s-.05.058.02.053c.069-.005.245.052.387-.053.034-.025.182-.23.182-.23s.127-.1.174-.186zM27.557 19.92c.008.028.423.019.527-.011.082-.021.127-.159.127-.159s.05-.12.007-.08c-.188.183-.668.22-.66.25zM20.89 23.52s-.063-.022-.14.09c-.078.11-.427.613-.365.687.073.087.375-.45.467-.55.093-.1.055-.203.055-.203s0-.023-.017-.024zM28.5 32.584c-.038.167.007.509.067.576.148.169.057-.265.079-.417a.858.858 0 01.11-.342c.132-.272-.179-.172-.256.183zM27.226 18.057s-.115.003-.205.05c-.091.047-.114.114-.114.114s-.018.047-.006.073c.027.057.151-.029.238 0 .07.023.104.043.158.104.047.053.13.13.182.086.053-.042.033-.151.033-.151s-.06-.178-.141-.228c-.081-.051-.145-.048-.145-.048zM25.312 19.307s-.064.01-.049.084c.015.073.057.061.057.061s.134-.054.126-.13c-.01-.076-.134-.015-.134-.015zM24.379 18.91s-.07.003-.12.085c-.048.082-.077.168-.077.168s-.023.107.018.142c.04.033.086-.07.145-.11.035-.025.057-.035.094-.06.05-.033.131.009.125-.087-.007-.096-.115-.142-.185-.138zM27.397 17.88s-.16-.021-.153.037c.006.054.086.022.138.043.05.022.084.03.124.066.03.025.027.074.063.075.05.001.04-.018.04-.018s-.045-.13-.105-.167c-.06-.038-.107-.035-.107-.035zM29.17 18.488c-.022.082-.036.11-.036.11s-.044.166.133.105c.178-.062.085-.036.213-.095.126-.058.124-.026.216-.021.032 0 .052.002.1-.007.04-.008.023-.053-.067-.076-.097-.024-.215-.019-.352-.02-.08 0-.183-.078-.207.004zM29.25 17.872s-.082-.018-.138.015c-.055.033-.038.06-.038.06s.084.063.146.071c.06.01.19.064.187.02-.007-.04-.08-.118-.105-.139-.026-.02-.053-.027-.053-.027zM29.561 19.028s-.087-.016-.146.015c-.059.03-.043.056-.043.056s.092.059.157.068c.066.008.205.058.2.018-.006-.04-.085-.112-.11-.132-.027-.02-.058-.025-.058-.025zM29.588 19.447s-.093-.02-.156.017c-.063.036-.044.064-.044.064s.096.07.166.079c.068.01.217.067.21.022-.006-.046-.089-.13-.118-.152a.141.141 0 00-.058-.03zM29.629 19.856s-.1-.022-.168.018c-.068.041-.047.074-.047.074s.104.076.178.088c.075.011.236.077.23.025-.008-.051-.098-.146-.129-.171a.153.153 0 00-.064-.034zM29.62 20.361s-.1-.02-.167.02c-.068.04-.05.072-.05.072s.106.077.18.088c.075.012.236.077.229.026-.008-.052-.097-.147-.127-.172a.179.179 0 00-.064-.034zM29.548 21.346s-.101-.02-.169.02c-.067.04-.047.072-.047.072s.103.078.178.089c.075.01.236.077.229.025-.007-.051-.097-.146-.128-.172-.03-.026-.063-.034-.063-.034zM29.615 20.854s-.115-.025-.195.022c-.078.045-.054.083-.054.083s.12.089.206.102c.085.013.271.088.265.03-.01-.06-.113-.17-.148-.199-.036-.03-.074-.038-.074-.038zM29.498 21.792s-.083-.018-.14.015c-.055.033-.037.06-.037.06s.085.064.146.072c.062.01.193.064.189.021-.007-.042-.08-.12-.106-.14-.025-.022-.052-.028-.052-.028zM29.42 22.219s-.068-.014-.115.013c-.045.027-.032.05-.032.05s.071.052.122.06c.05.007.162.053.157.017-.004-.035-.067-.1-.088-.117a.12.12 0 00-.044-.023zM29.324 22.608s-.061-.013-.104.012c-.04.024-.03.045-.03.045s.065.047.111.053c.046.008.145.048.14.017-.003-.032-.058-.091-.077-.107-.02-.015-.04-.02-.04-.02zM29.227 22.927s-.063-.013-.103.011c-.043.025-.03.045-.03.045s.064.048.11.054c.046.007.145.048.14.016-.003-.032-.058-.09-.079-.105-.018-.016-.038-.02-.038-.02zM29.108 23.298s-.05-.011-.084.008c-.034.021-.023.036-.023.036s.052.039.089.045c.037.005.118.038.113.012-.003-.025-.048-.072-.063-.085-.015-.013-.032-.016-.032-.016zM28.967 23.644s-.042-.01-.072.008c-.029.017-.02.031-.02.031s.045.033.077.037c.031.006.1.034.097.011-.002-.022-.041-.062-.054-.073a.082.082 0 00-.028-.014zM28.823 23.973s-.044-.009-.073.009c-.028.016-.018.03-.018.03s.043.033.075.038c.033.005.101.033.098.012-.002-.024-.042-.064-.054-.075a.075.075 0 00-.028-.014zM19.42 25.649s-.072.133-.037.206c.036.074.134-.116.134-.116s.1-.19.06-.225c-.042-.035-.066.063-.157.135z" fill="#fff"/><path d="M29.644 43v-.305c0-.587.314-.702 1.23-.706.842.004 1.126.104 1.126.61v1.955h.324V45h-2.058c-.433 0-.716-.288-.716-.635v-.396c0-.341.184-.639.829-.642h.804v-.595c0-.31-.022-.348-.351-.348h-.004c-.394 0-.42.05-.42.348V43h-.764zm.955.655c-.162 0-.257.123-.257.276v.378c0 .152.068.273.257.276h.29c.16 0 .29-.047.29-.276l.002-.654H30.599zM36.837 44.55v-2.508h-1.172v.406h.329v2.102h-.328v.444h1.479v-.444h-.308zM24.849 42.69V42H23.7v.413h.3v2.145h-.3v.441h1.436v-.441h-.288V43.39c0-.106.56-.915.56-.822v1.12h.796v-1.26c0-.288-.198-.475-.562-.475-.43 0-.607.514-.794.736zM27.852 42.69V42h-1.148v.413h.3v2.145h-.3v.441h1.437v-.441h-.288V43.39c0-.106.56-.915.56-.822v1.12h.795v-1.26c0-.288-.198-.475-.56-.475-.431 0-.608.514-.796.736z" fill="#000"/><path d="M23.02 44h-.805v.248c0 .3-.053.313-.446.317h-.005c-.45.003-.425-.04-.42-.317v-.524h1.676v-1.14c0-.413-.329-.586-1.197-.59h-.125c-.937.005-1.187.207-1.187.718v1.668c0 .562.35.657 1.204.68h.094c.931-.021 1.211-.082 1.211-.606V44zm-1.667-1.373c0-.156.05-.232.237-.234h.354c.146 0 .227.062.227.172v.855h-.818v-.793zM36.841 40.461v.62h-.858v-.62h.858z" fill="#000"/><path d="M33.85 42.725V42H32.7v.448h.3v2.105h-.3V45h1.438v-.447h-.289v-1.128c0-.105.676-.915.676-.822v1.12h.796v-1.26c0-.288-.2-.474-.564-.474-.43 0-.721.513-.908.736zM19.484 43.758v-.432H19v1.325h.68v.447h-2.273v-.447h.605v-3.654h-.476v-.536H35.25v.537H19v1.85h.484v-.526h.515v1.436h-.515z" fill="#000"/></svg>