<svg fill="none" height="20" viewBox="0 0 22 20" width="22" xmlns="http://www.w3.org/2000/svg"><path d="m8.25 20-.4-3.2c-.21667-.0833-.42067-.1833-.612-.3-.192-.1167-.37967-.2417-.563-.375l-2.975 1.25-2.749999-4.75 2.574999-1.95c-.01667-.1167-.025-.2293-.025-.338v-.675c0-.108.00833-.22033.025-.337l-2.574999-1.95 2.749999-4.75 2.975 1.25c.18333-.13333.375-.25833.575-.375s.4-.21667.6-.3l.4-3.2h5.5l.4 3.2c.2167.08333.421.18333.613.3.1913.11667.3787.24167.562.375l2.975-1.25 2.75 4.75-2.575 1.95c.0167.11667.025.229.025.337v.675c0 .1087-.0167.2213-.05.338l2.575 1.95-2.75 4.75-2.95-1.25c-.1833.1333-.375.2583-.575.375s-.4.2167-.6.3l-.4 3.2zm2.8-6.5c.9667 0 1.7917-.3417 2.475-1.025s1.025-1.5083 1.025-2.475c0-.96667-.3417-1.79167-1.025-2.475s-1.5083-1.025-2.475-1.025c-.9833 0-1.81267.34167-2.488 1.025-.67467.68333-1.012 1.50833-1.012 2.475 0 .9667.33733 1.7917 1.012 2.475.67533.6833 1.5047 1.025 2.488 1.025zm0-2c-.4167 0-.7707-.146-1.062-.438-.292-.2913-.438-.6453-.438-1.062 0-.41667.146-.77067.438-1.062.2913-.292.6453-.438 1.062-.438s.771.146 1.063.438c.2913.29133.437.64533.437 1.062 0 .4167-.1457.7707-.437 1.062-.292.292-.6463.438-1.063.438zm-1.05 6.5h1.975l.35-2.65c.5167-.1333.996-.3293 1.438-.588.4413-.258.8453-.5703 1.212-.937l2.475 1.025.975-1.7-2.15-1.625c.0833-.2333.1417-.4793.175-.738.0333-.258.05-.5203.05-.787 0-.26667-.0167-.52933-.05-.788-.0333-.258-.0917-.50367-.175-.737l2.15-1.625-.975-1.7-2.475 1.05c-.3667-.38333-.7707-.70433-1.212-.963-.442-.258-.9213-.45367-1.438-.587l-.325-2.65h-1.975l-.35 2.65c-.51667.13333-.99567.329-1.437.587-.442.25867-.84633.57133-1.213.938l-2.475-1.025-.975 1.7 2.15 1.6c-.08333.25-.14167.5-.175.75s-.05.51667-.05.8c0 .2667.01667.525.05.775s.09167.5.175.75l-2.15 1.625.975 1.7 2.475-1.05c.36667.3833.771.704 1.213.962.44133.2587.92033.4547 1.437.588z" fill="#896fff"/></svg>