<svg fill="none" height="24" viewBox="0 0 24 24" width="24" xmlns="http://www.w3.org/2000/svg"><path d="m11.2499 5.1999v-3.675h1.5v3.675zm6.075 2.525-1.025-1.025 2.575-2.65 1.05 1.075zm1.475 5.025v-1.5h3.675v1.5zm-7.55 9.725v-3.675h1.5v3.675zm-4.55-14.775-2.65-2.575 1.075-1.05 2.625 2.6zm12.15 12.25-2.55-2.65 1-1 2.625 2.55zm-17.325-7.2v-1.5h3.675v1.5zm3.6 7.2-1.05-1.075 2.575-2.575.55.5.55.525zm6.875-2.45c-1.5333 0-2.83333-.5333-3.9-1.6-1.06666-1.0667-1.6-2.3667-1.6-3.9s.53334-2.83333 1.6-3.9c1.06667-1.06666 2.3667-1.6 3.9-1.6s2.8333.53334 3.9 1.6c1.0667 1.06667 1.6 2.3667 1.6 3.9s-.5333 2.8333-1.6 3.9-2.3667 1.6-3.9 1.6zm0-1.5c1.1 0 2.0417-.3917 2.825-1.175s1.175-1.725 1.175-2.825-.3917-2.04166-1.175-2.825c-.7833-.78333-1.725-1.175-2.825-1.175s-2.04166.39167-2.825 1.175c-.78333.78334-1.175 1.725-1.175 2.825s.39167 2.0417 1.175 2.825c.78334.7833 1.725 1.175 2.825 1.175z" fill="#defb3a"/></svg>