<svg height="56" width="56" xmlns="http://www.w3.org/2000/svg"><path d="m0 0h56v56h-56z" fill="#e82127"/><g fill="#fff"><path d="m28 46 4.5-25c4.267 0 5.594.072 5.788 1.99 0 0 2.863-1.072 4.306-3.25-5.633-2.62-11.294-2.74-11.294-2.74l-3.3 4-3.3-4s-5.66.118-11.293 2.74c1.442 2.177 4.306 3.25 4.306 3.25.195-1.92 1.549-1.987 5.787-1.99z"/><path d="m28 15.947c4.554-.035 9.664.717 15 3.053.713-1.29 1-2 1-2-5.833-2.318-11.296-2.98-16-3-4.705.02-10.167.682-16 3 0 0 .364.843 1 2 5.335-2.336 10.446-3.088 15-3.053z"/></g></svg>