<svg height="56" width="56" xmlns="http://www.w3.org/2000/svg"><path d="m0 0h56v56h-56z" fill="#22275e"/><path d="m28.373 25.458c-.026 1.942 1.811 3.026 3.196 3.67 1.422.662 1.9 1.086 1.894 1.677-.01.905-1.134 1.305-2.186 1.32-1.835.027-2.902-.473-3.75-.852l-.66 2.955c.85.375 2.426.702 4.06.716 3.835 0 6.344-1.809 6.358-4.613.015-3.56-5.153-3.757-5.118-5.348.012-.482.494-.997 1.55-1.128.522-.066 1.965-.117 3.6.603l.642-2.859a10.19 10.19 0 0 0 -3.417-.599c-3.61 0-6.149 1.833-6.17 4.458zm15.754-4.458c-.7 0-1.29.39-1.554.99l-5.671 13.01h3.832l.956-2.28h4.683l.25 2.28h3.377l-2.755-14zm.536 3.89 1.106 5.065h-3.029zm-20.937-3.89-3.214 14h3.652l3.213-14h-3.65zm-5.402 0-3.802 9.427-1.537-8.053c-.18-.87-.893-1.374-1.684-1.374h-6.214l-.087.392c1.276.264 2.725.69 3.603 1.147.537.279.69.523.867 1.185l2.72 11.276h3.859l6.11-14z" fill="#fff"/></svg>